<svg width="26" height="27" viewBox="0 0 26 27" fill="none" xmlns="http://www.w3.org/2000/svg">
<g clip-path="url(#clip0_14_349)">
<path d="M25.1522 4.17392H0.847844C0.37959 4.17392 0 4.55351 0 5.02176V21.9783C0 22.4465 0.37959 22.8261 0.847844 22.8261H25.1522C25.6204 22.8261 26 22.4465 26 21.9783V5.02176C26 4.55351 25.6204 4.17392 25.1522 4.17392ZM24.3044 21.1304H9.04348V20.2826C9.04348 19.8144 8.66389 19.4348 8.19564 19.4348C7.72738 19.4348 7.34779 19.8143 7.34779 20.2826V21.1304H1.69564V5.86956H7.34779V6.7174C7.34779 7.1856 7.72738 7.56524 8.19564 7.56524C8.66389 7.56524 9.04348 7.18565 9.04348 6.7174V5.86956H24.3044V21.1304Z" fill="white"/>
<path d="M8.19574 14.0087C7.72754 14.0087 7.3479 14.3883 7.3479 14.8565V17.5696C7.3479 18.0378 7.72749 18.4174 8.19574 18.4174C8.664 18.4174 9.04359 18.0378 9.04359 17.5696V14.8565C9.04359 14.3883 8.664 14.0087 8.19574 14.0087Z" fill="white"/>
<path d="M8.19574 8.58261C7.72754 8.58261 7.3479 8.9622 7.3479 9.43045V12.1435C7.3479 12.6117 7.72749 12.9913 8.19574 12.9913C8.664 12.9913 9.04359 12.6117 9.04359 12.1435V9.43045C9.04359 8.9622 8.664 8.58261 8.19574 8.58261Z" fill="white"/>
<path d="M13.2825 7.56519C11.88 7.56519 10.739 8.70619 10.739 10.1087C10.739 11.5111 11.88 12.6521 13.2825 12.6521C14.685 12.6521 15.826 11.5111 15.826 10.1087C15.826 8.70619 14.685 7.56519 13.2825 7.56519ZM13.2825 10.9565C12.815 10.9565 12.4347 10.5762 12.4347 10.1087C12.4347 9.64117 12.815 9.26082 13.2825 9.26082C13.75 9.26082 14.1303 9.64117 14.1303 10.1087C14.1303 10.5762 13.75 10.9565 13.2825 10.9565Z" fill="white"/>
<path d="M20.0652 14.3478C18.6627 14.3478 17.5217 15.4889 17.5217 16.8913C17.5217 18.2938 18.6627 19.4348 20.0652 19.4348C21.4677 19.4348 22.6087 18.2938 22.6087 16.8913C22.6087 15.4888 21.4677 14.3478 20.0652 14.3478ZM20.0652 17.7391C19.5977 17.7391 19.2174 17.3588 19.2174 16.8913C19.2174 16.4238 19.5977 16.0434 20.0652 16.0434C20.5327 16.0434 20.9131 16.4238 20.9131 16.8913C20.9131 17.3588 20.5327 17.7391 20.0652 17.7391Z" fill="white"/>
<path d="M20.87 9.30398C20.539 8.97289 20.0021 8.97289 19.671 9.30398L12.477 16.498C12.146 16.8291 12.146 17.3659 12.477 17.697C12.6426 17.8626 12.8596 17.9454 13.0765 17.9454C13.2935 17.9454 13.5105 17.8626 13.676 17.697L20.87 10.503C21.2011 10.1719 21.2011 9.63508 20.87 9.30398Z" fill="white"/>
</g>
<defs>
<clipPath id="clip0_14_349">
<rect width="26" height="26" fill="white" transform="translate(0 0.5)"/>
</clipPath>
</defs>
</svg>
