<svg width="22" height="23" viewBox="0 0 22 23" fill="none" xmlns="http://www.w3.org/2000/svg">
<g clip-path="url(#clip0_74_2143)">
<path d="M10.3125 20.975H1.52502V2.02502H10.3125C10.7749 2.02502 11.15 1.64983 11.15 1.18754C11.15 0.725242 10.7748 0.350061 10.3125 0.350061H0.68748C0.225189 0.350061 -0.15 0.725176 -0.15 1.18754V21.8125C-0.15 22.2748 0.225189 22.6499 0.68748 22.6499H10.3124C10.7748 22.6499 11.1499 22.2748 11.1499 21.8125C11.15 21.3501 10.7748 20.975 10.3125 20.975Z" fill="white" stroke="white" stroke-width="0.3"/>
<path d="M17.1635 6.10277L17.1638 6.10299L21.9066 10.9139C21.9067 10.914 21.9069 10.9142 21.9071 10.9144C22.2335 11.2404 22.2289 11.7821 21.9068 12.1072L17.1635 6.10277ZM17.1635 6.10277C16.836 5.77186 16.3051 5.77269 15.9783 6.10264C15.6515 6.432 15.6515 6.96633 15.9783 7.29569L19.3013 10.6666H5.50218C5.03845 10.6666 4.6647 11.0459 4.6647 11.511C4.6647 11.9761 5.03852 12.3554 5.50218 12.3554H19.3013L15.9782 15.7264C15.9782 15.7264 15.9782 15.7265 15.9781 15.7265C15.6516 16.0564 15.6514 16.5898 15.9782 16.9192C16.3056 17.25 16.8367 17.2502 17.1637 16.9191L17.1638 16.919L21.9064 12.1075L17.1635 6.10277Z" fill="white" stroke="white" stroke-width="0.3"/>
</g>
<defs>
<clipPath id="clip0_74_2143">
<rect width="22" height="22" fill="white" transform="translate(0 0.5)"/>
</clipPath>
</defs>
</svg>
