<svg width="35" height="35" viewBox="0 0 35 35" fill="none" xmlns="http://www.w3.org/2000/svg">
					<path d="M28.3933 29.94C28.8205 30.3672 29.5129 30.3672 29.94 29.94C30.3672 29.5129 30.3672 28.8205 29.94 28.3933L28.3933 29.94ZM23.8053 23.8346C24.2331 23.4081 24.2343 22.7156 23.8079 22.2877C23.3815 21.8598 22.6889 21.8587 22.261 22.2851L23.8053 23.8346ZM24.9594 17.2824C24.8392 17.8744 25.2216 18.4517 25.8137 18.5719C26.4056 18.692 26.983 18.3095 27.1031 17.7176L24.9594 17.2824ZM15.3125 25.1562C9.87595 25.1562 5.46875 20.749 5.46875 15.3125H3.28125C3.28125 21.9571 8.66782 27.3438 15.3125 27.3438V25.1562ZM5.46875 15.3125C5.46875 9.87595 9.87595 5.46875 15.3125 5.46875V3.28125C8.66782 3.28125 3.28125 8.66782 3.28125 15.3125H5.46875ZM15.3125 5.46875C20.749 5.46875 25.1562 9.87595 25.1562 15.3125H27.3438C27.3438 8.66782 21.9571 3.28125 15.3125 3.28125V5.46875ZM29.94 28.3933L23.8333 22.2864L22.2864 23.8333L28.3933 29.94L29.94 28.3933ZM22.261 22.2851C20.4795 24.0606 18.025 25.1562 15.3125 25.1562V27.3438C18.6271 27.3438 21.6303 26.0019 23.8053 23.8346L22.261 22.2851ZM25.1562 15.3125C25.1562 15.9881 25.0883 16.6469 24.9594 17.2824L27.1031 17.7176C27.2611 16.9396 27.3438 16.1351 27.3438 15.3125H25.1562Z" fill="#DE0144"/>
					</svg>