<svg width="26" height="27" viewBox="0 0 26 27" fill="none" xmlns="http://www.w3.org/2000/svg">
<g clip-path="url(#clip0_16_430)">
<path d="M12.7945 18.1917C13.4402 18.1917 13.9636 17.6683 13.9636 17.0227C13.9636 16.377 13.4402 15.8536 12.7945 15.8536C12.1489 15.8536 11.6255 16.377 11.6255 17.0227C11.6255 17.6683 12.1489 18.1917 12.7945 18.1917Z" fill="white"/>
<path d="M12.7804 11.2141C7.91802 11.2141 4.09501 15.6283 3.03921 16.9812C2.62786 17.5084 2.69262 18.2498 3.18995 18.706C6.39712 21.647 9.62376 23.1382 12.7804 23.1382C17.4434 23.1382 21.5275 19.8411 22.8694 18.7576C23.1529 18.5287 23.325 18.2098 23.354 17.8597C23.3826 17.514 23.268 17.177 23.0314 16.9108C21.5087 15.198 17.4615 11.2141 12.7804 11.2141ZM12.7804 21.8004C9.98178 21.8004 7.07295 20.4399 4.13257 17.7549C5.14571 16.4684 8.57931 12.5519 12.7804 12.5519C16.9802 12.5519 20.8355 16.4648 21.9873 17.7503C20.6952 18.7931 16.9253 21.8004 12.7804 21.8004ZM22.0319 17.8002C22.0318 17.8 22.0317 17.7999 22.0316 17.7998L22.5315 17.3554L22.0319 17.8002Z" fill="white"/>
<path d="M12.7946 12.8465C10.3307 12.8465 8.32617 14.7199 8.32617 17.0227C8.32617 19.3254 10.3307 21.1988 12.7946 21.1988C15.2585 21.1988 17.263 19.3254 17.263 17.0227C17.263 14.7199 15.2585 12.8465 12.7946 12.8465ZM12.7946 19.8611C11.0684 19.8611 9.66404 18.5878 9.66404 17.0228C9.66404 15.4577 11.0684 14.1844 12.7946 14.1844C14.5207 14.1844 15.9252 15.4577 15.9252 17.0228C15.9252 18.5878 14.5208 19.8611 12.7946 19.8611Z" fill="white"/>
<path d="M25.7602 8.17661C25.6668 8.09844 23.4247 6.24887 19.258 4.98916C15.4423 3.83548 9.2109 2.98335 1.19281 5.47555C0.733621 5.61832 0.355224 5.95085 0.154848 6.38785C-0.0463502 6.82608 -0.0516924 7.33031 0.140054 7.77109L1.31798 10.4799C1.51622 10.9357 1.90259 11.2803 2.3783 11.4254C2.54054 11.4749 2.70722 11.4993 2.87308 11.4993C3.19271 11.4993 3.5093 11.4088 3.78521 11.2328C6.57017 9.45768 14.2235 5.71777 25.1209 9.32478C25.4257 9.42604 25.7593 9.29577 25.9155 9.01518C26.0717 8.73459 26.0065 8.38257 25.7602 8.17661ZM11.0255 6.98314C7.13982 7.76131 4.3708 9.27292 3.06597 10.1047C2.97721 10.1613 2.86897 10.1766 2.76861 10.1457C2.66818 10.1151 2.58665 10.0424 2.5449 9.94621L1.36689 7.23744C1.3267 7.14514 1.32809 7.03887 1.37091 6.94575C1.41324 6.85345 1.49313 6.7831 1.58986 6.7531C9.24854 4.37275 15.1766 5.16505 18.8013 6.24879C19.3977 6.42714 19.953 6.61896 20.4662 6.81622C17.2495 6.31487 14.0897 6.36936 11.0255 6.98314Z" fill="white"/>
<path d="M8.69283 6.82979C9.03327 6.82979 9.30925 6.55381 9.30925 6.21337C9.30925 5.87293 9.03327 5.59695 8.69283 5.59695C8.35239 5.59695 8.07642 5.87293 8.07642 6.21337C8.07642 6.55381 8.35239 6.82979 8.69283 6.82979Z" fill="white"/>
<path d="M7.01819 5.94346C4.38864 6.39056 2.82327 7.1218 2.75802 7.15278C2.4503 7.29826 2.3188 7.6658 2.46435 7.97352C2.5735 8.20439 2.80758 8.33613 3.04773 8.32603C3.1277 8.32266 3.20825 8.30359 3.28517 8.26718C3.29964 8.26036 4.76087 7.57786 7.22489 7.15886C7.56055 7.10174 7.78641 6.78342 7.72928 6.44785C7.67208 6.11211 7.35245 5.88724 7.01819 5.94346Z" fill="white"/>
</g>
<defs>
<clipPath id="clip0_16_430">
<rect width="26" height="26" fill="white" transform="translate(0 0.5)"/>
</clipPath>
</defs>
</svg>
